<svg width="13" height="13" viewBox="0 0 13 13" fill="none" xmlns="http://www.w3.org/2000/svg">
<path d="M6.5 11.709C5.29326 11.709 4.13595 11.233 3.28266 10.3856C2.42937 9.53828 1.95 8.38901 1.95 7.19067C1.95 5.99232 2.42937 4.84305 3.28266 3.99569C4.13595 3.14834 5.29326 2.67229 6.5 2.67229C7.70673 2.67229 8.86405 3.14834 9.71734 3.99569C10.5706 4.84305 11.05 5.99232 11.05 7.19067C11.05 8.38901 10.5706 9.53828 9.71734 10.3856C8.86405 11.233 7.70673 11.709 6.5 11.709ZM6.5 1.38133C4.94848 1.38133 3.46051 1.99338 2.36343 3.08285C1.26634 4.17231 0.65 5.64993 0.65 7.19067C0.65 8.7314 1.26634 10.209 2.36343 11.2985C3.46051 12.3879 4.94848 13 6.5 13C8.05152 13 9.53949 12.3879 10.6366 11.2985C11.7337 10.209 12.35 8.7314 12.35 7.19067C12.35 5.64993 11.7337 4.17231 10.6366 3.08285C9.53949 1.99338 8.05152 1.38133 6.5 1.38133ZM6.825 3.96326H5.85V7.83615L8.9375 9.67577L9.425 8.88183L6.825 7.35204V3.96326ZM3.822 0.987587L2.99 0L0 2.4851L0.8385 3.47269L3.822 0.987587ZM13 2.49156L10.01 0L9.1715 0.987587L12.1615 3.47915L13 2.49156Z" fill="white"/>
</svg>
