<svg width="26" height="27" viewBox="0 0 26 27" fill="none" xmlns="http://www.w3.org/2000/svg">
<path d="M7.75 0.583374H18.25C22.25 0.583374 25.5 3.94171 25.5 8.07504V18.925C25.5 20.912 24.7362 22.8175 23.3765 24.2225C22.0169 25.6274 20.1728 26.4167 18.25 26.4167H7.75C3.75 26.4167 0.5 23.0584 0.5 18.925V8.07504C0.5 6.08813 1.26384 4.18259 2.62348 2.77763C3.98311 1.37267 5.82718 0.583374 7.75 0.583374ZM7.5 3.16671C6.30653 3.16671 5.16193 3.65662 4.31802 4.52866C3.47411 5.40071 3 6.58345 3 7.81671V19.1834C3 21.7538 5.0125 23.8334 7.5 23.8334H18.5C19.6935 23.8334 20.8381 23.3435 21.682 22.4714C22.5259 21.5994 23 20.4166 23 19.1834V7.81671C23 5.24629 20.9875 3.16671 18.5 3.16671H7.5ZM19.5625 5.10421C19.9769 5.10421 20.3743 5.27431 20.6674 5.57711C20.9604 5.8799 21.125 6.29058 21.125 6.71879C21.125 7.14701 20.9604 7.55768 20.6674 7.86047C20.3743 8.16327 19.9769 8.33337 19.5625 8.33337C19.1481 8.33337 18.7507 8.16327 18.4576 7.86047C18.1646 7.55768 18 7.14701 18 6.71879C18 6.29058 18.1646 5.8799 18.4576 5.57711C18.7507 5.27431 19.1481 5.10421 19.5625 5.10421ZM13 7.04171C14.6576 7.04171 16.2473 7.72214 17.4194 8.93331C18.5915 10.1445 19.25 11.7872 19.25 13.5C19.25 15.2129 18.5915 16.8556 17.4194 18.0668C16.2473 19.2779 14.6576 19.9584 13 19.9584C11.3424 19.9584 9.75268 19.2779 8.58058 18.0668C7.40848 16.8556 6.75 15.2129 6.75 13.5C6.75 11.7872 7.40848 10.1445 8.58058 8.93331C9.75268 7.72214 11.3424 7.04171 13 7.04171ZM13 9.62504C12.0054 9.62504 11.0516 10.0333 10.3483 10.76C9.64509 11.4867 9.25 12.4723 9.25 13.5C9.25 14.5278 9.64509 15.5134 10.3483 16.2401C11.0516 16.9668 12.0054 17.375 13 17.375C13.9946 17.375 14.9484 16.9668 15.6517 16.2401C16.3549 15.5134 16.75 14.5278 16.75 13.5C16.75 12.4723 16.3549 11.4867 15.6517 10.76C14.9484 10.0333 13.9946 9.62504 13 9.62504Z" fill="#9A9A9A"/>
</svg>
