<svg width="27" height="21" viewBox="0 0 27 21" fill="none" xmlns="http://www.w3.org/2000/svg">
<path d="M26.1392 2.99996C25.2087 3.40829 24.2058 3.67663 23.1667 3.80496C24.23 3.18663 25.0517 2.20663 25.4383 1.02829C24.4354 1.61163 23.3237 2.01996 22.1517 2.25329C21.1971 1.24996 19.8558 0.666626 18.3333 0.666626C15.4938 0.666626 13.1738 2.90663 13.1738 5.67163C13.1738 6.06829 13.2221 6.45329 13.3067 6.81496C9.005 6.60496 5.17458 4.60996 2.625 1.58829C2.17792 2.32329 1.92417 3.18663 1.92417 4.09663C1.92417 5.83496 2.83042 7.37496 4.23208 8.24996C3.37417 8.24996 2.57667 8.01663 1.87583 7.66663V7.70163C1.87583 10.1283 3.66417 12.1583 6.0325 12.6133C5.27213 12.8142 4.47387 12.8422 3.70042 12.695C4.02861 13.6895 4.67136 14.5598 5.53831 15.1834C6.40527 15.807 7.45283 16.1526 8.53375 16.1716C6.70147 17.5721 4.43025 18.3292 2.09333 18.3183C1.6825 18.3183 1.27167 18.295 0.860833 18.2483C3.15667 19.6716 5.8875 20.5 8.81167 20.5C18.3333 20.5 23.5654 12.87 23.5654 6.25496C23.5654 6.03329 23.5654 5.82329 23.5533 5.60163C24.5683 4.90163 25.4383 4.01496 26.1392 2.99996Z" fill="#9A9A9A"/>
</svg>
